<?xml version="1.0" encoding="UTF-8" standalone="no"?>
<!-- Copyright 2017 mathsisfun.com -->

<svg
   width="409.6"
   height="244.7"
   version="1.0"
   id="svg32601"
   sodipodi:docname="circle-sector-area.svg"
   inkscape:version="1.2.1 (9c6d41e410, 2022-07-14)"
   xmlns:inkscape="http://www.inkscape.org/namespaces/inkscape"
   xmlns:sodipodi="http://sodipodi.sourceforge.net/DTD/sodipodi-0.dtd"
   xmlns="http://www.w3.org/2000/svg"
   xmlns:svg="http://www.w3.org/2000/svg">
  <sodipodi:namedview
     id="namedview32603"
     pagecolor="#ffffff"
     bordercolor="#666666"
     borderopacity="1.0"
     inkscape:showpageshadow="2"
     inkscape:pageopacity="0.0"
     inkscape:pagecheckerboard="0"
     inkscape:deskcolor="#d1d1d1"
     showgrid="false"
     inkscape:zoom="2.72787"
     inkscape:cx="222.702"
     inkscape:cy="96.5957"
     inkscape:window-width="1920"
     inkscape:window-height="998"
     inkscape:window-x="1911"
     inkscape:window-y="-9"
     inkscape:window-maximized="1"
     inkscape:current-layer="svg32601" />
  <defs
     id="defs32557">
    <marker
       id="id02"
       style="overflow:visible"
       orient="auto">
      <path
         transform="matrix(-0.4,0,0,-0.4,-4,0)"
         style="stroke:black;stroke-width:1pt"
         d="M 0,0 5,-5 -12.5,0 5,5 Z"
         id="path32551" />
    </marker>
    <marker
       id="id01"
       style="overflow:visible"
       orient="auto">
      <path
         transform="matrix(0.4,0,0,0.4,4,0)"
         style="stroke:black;stroke-width:1pt"
         d="M 0,0 5,-5 -12.5,0 5,5 Z"
         id="path32554" />
    </marker>
  </defs>
  <circle
     cx="-155"
     cy="-290.3"
     r="92.2483"
     transform="rotate(134.852)"
     style="fill:#f6ffdb;fill-opacity:0.3;stroke:black;stroke-width:1.69"
     id="circle32559" />
  <path
     style="fill:#e6ffe6;stroke:#00ff00;stroke-width:1.69"
     d="m 288.3,5.3 a 93.1,93.1 0 0 1 82.7,14.1 93.1,93.1 0 0 1 37.8,74.9 l -93.1,-4e-4 z"
     id="path32561" />
  <text
     x="318.9"
     y="42.6"
     transform="rotate(-0.148076)"
     style="font-family:Trebuchet MS;font-size:18.2px;fill:#c4a000;stroke-width:1.3"
     id="text32563">Sector</text>
  <path
     transform="rotate(134.852)"
     style="marker-start:url(#id01);marker-end:url(#id02);fill:none;fill-opacity:0.45;stroke:black;stroke-width:0.91"
     d="m -174.7,-256.1 a 39.5,39.5 0 0 1 -19.3,-28.1 39.5,39.5 0 0 1 9.8,-32.7"
     id="path32565" />
  <circle
     cx="93"
     cy="93"
     r="92.2003"
     style="fill:#e6ffe6;stroke:#00ff00;stroke-width:1.69"
     id="circle32567" />
  <path
     style="marker-start:url(#id01);marker-end:url(#id02);fill:none;fill-opacity:0.45;stroke:black;stroke-width:0.91"
     d="M 132.5,93 A 39.5,39.5 0 0 1 93.3,132.5 39.5,39.5 0 0 1 53.6,93.6 39.5,39.5 0 0 1 92.2,53.6 39.5,39.5 0 0 1 132.5,91.9"
     id="path32569" />
  <text
     x="47.3"
     y="38.4"
     style="font-family:Trebuchet MS;font-size:18.2px;fill:#c4a000;stroke-width:1.3"
     id="text32571">
    Full Circle
  </text>
  <ellipse
     cx="121.2"
     cy="64.1"
     rx="14.6"
     ry="15.4"
     style="fill:#e6ffe6;stroke-width:1.69"
     id="ellipse32573" />
  <text
     x="110.6"
     y="71.9"
     style="font-family:Trebuchet MS;font-size:18.2px;stroke-width:1.3"
     id="text32575">2π</text>
  <ellipse
     cx="-207.6"
     cy="-295.9"
     rx="10.8"
     ry="11.4"
     transform="matrix(-0.678373,0.734718,-0.68215,-0.731212,0,0)"
     style="fill:#e6ffe6;stroke-width:1.25"
     id="ellipse32577" />
  <path
     style="color:black;marker-start:url(#id01);marker-end:url(#id02);overflow:visible;fill:#3465a4;fill-opacity:0.75;stroke:black;stroke-width:1.56;stroke-linecap:round;stroke-dasharray:3.1, 3.1"
     d="M 315.8,94.4 230,126.2"
     id="path32579" />
  <text
     x="249.129"
     y="113.58"
     transform="rotate(-0.148076)"
     style="font-size:23.4px;font-family:'Trebuchet MS';fill:#000000;stroke-width:1.3"
     id="text32583">r</text>
  <text
     x="35.4"
     y="210.1"
     style="font-family:Trebuchet MS;font-size:20.8px;fill:#3465a4;stroke-width:1.3"
     id="text32585">   A = π × r²</text>
  <path
     style="fill:none;fill-opacity:0.75;stroke:black;stroke-width:1.3px"
     d="M 92.5,93.7 H 186.3"
     id="path32587" />
  <text
     x="205.3"
     y="211.9"
     style="font-family:Trebuchet MS;font-size:20.8px;fill:#3465a4;stroke-width:1.3"
     id="text32589">   A = (θ/2π) × π × r²</text>
  <text
     x="227.3"
     y="240.3"
     style="font-family:Trebuchet MS;font-size:20.8px;fill:#3465a4;stroke-width:1.3"
     id="text32591">   = (θ/2) × r²</text>
  <path
     style="color:black;marker-start:url(#id01);marker-end:url(#id02);overflow:visible;fill:#3465a4;fill-opacity:0.75;stroke:black;stroke-width:1.56;stroke-linecap:round;stroke-dasharray:3.1, 3.1"
     d="M 91.6,94.7 10,131.1"
     id="path32593" />
  <text
     x="27.8306"
     y="116.012"
     transform="rotate(-0.148076)"
     style="font-size:23.4px;font-family:'Trebuchet MS';fill:#000000;stroke-width:1.3"
     id="text32597">r</text>
  <text
     x="335.7"
     y="71.5"
     transform="rotate(-0.148076)"
     style="font-family:Trebuchet MS;font-size:18.2px;stroke-width:1.3"
     id="text32599">θ</text>
</svg>
